<svg xmlns="http://www.w3.org/2000/svg" viewBox="0 0 308.19 305.67"><defs><style>.cls-1,.cls-2{fill:#02208b;}.cls-2{fill-rule:evenodd;}</style></defs><title>bcbp-seeklogo</title><g id="center_line_with_3_circles" data-name="center line with 3 circles"><circle class="cls-1" cx="101.06" cy="84" r="23.17"/><circle class="cls-1" cx="207.06" cy="84" r="23.17"/><circle class="cls-1" cx="154.06" cy="26.5" r="26.5"/><rect class="cls-1" x="127.56" y="60.83" width="53" height="244.83"/></g><g id="inner_component_cutouts" data-name="inner component cutouts"><path class="cls-1" d="M332.7,164.58a33.08,33.08,0,0,1,0,46.34h77.43a159.88,159.88,0,0,0-22.19-46.34Z" transform="translate(-101.94 -103.75)"/><path class="cls-1" d="M169.58,187.5a33.07,33.07,0,0,1,9.47-23.17H124.23a160.26,160.26,0,0,0-22.29,46.34h77.11A33.07,33.07,0,0,1,169.58,187.5Z" transform="translate(-101.94 -103.75)"/><polygon class="cls-2" points="117.81 114.33 75.93 114.33 50.43 158.83 92.31 158.83 117.81 114.33"/><polygon class="cls-2" points="117.81 203.33 75.93 203.33 50.43 158.83 92.31 158.83 117.81 203.33"/><polygon class="cls-2" points="189.35 114.33 231.22 114.33 256.72 158.83 214.85 158.83 189.35 114.33"/><polygon class="cls-2" points="189.35 203.33 231.22 203.33 256.72 158.83 214.85 158.83 189.35 203.33"/></g></svg>