<svg xmlns="http://www.w3.org/2000/svg" viewBox="0 0 512 512"><defs><style>.cls-1,.cls-3,.cls-4{fill:#02208b;}.cls-2{fill:none;stroke:#02208b;stroke-miterlimit:10;stroke-width:5px;}.cls-3{font-size:29.63px;font-family:Arial-BoldMT, Arial;font-weight:700;}.cls-4{fill-rule:evenodd;}</style></defs><title>Artboard 1</title><g id="center_line_with_3_circles" data-name="center line with 3 circles"><circle class="cls-1" cx="203" cy="187.75" r="23.17"/><circle class="cls-1" cx="309" cy="187.75" r="23.17"/><circle class="cls-1" cx="256" cy="130.25" r="26.5"/><rect class="cls-1" x="229.5" y="164.58" width="53" height="244.83"/></g><g id="outer_circles_with_text" data-name="outer circles with text"><circle class="cls-2" cx="256" cy="256" r="173.08"/><circle class="cls-2" cx="256" cy="256" r="222.17"/><text class="cls-3" transform="matrix(-0.96, -0.27, 0.27, -0.96, 216.76, 438.08)">B</text><text class="cls-3" transform="translate(194.52 431.83) rotate(-157.38)">R</text><text class="cls-3" transform="translate(173.22 422.89) rotate(-149.99)">O</text><text class="cls-3" transform="translate(151.9 410.16) rotate(-143.77)">T</text><text class="cls-3" transform="translate(136.01 398.38) rotate(-136.64)">H</text><text class="cls-3" transform="translate(119.29 382.39) rotate(-129.74)">E</text><text class="cls-3" transform="translate(105.59 365.83) rotate(-122.82)">R</text><text class="cls-3" transform="matrix(-0.43, -0.9, 0.9, -0.43, 93.15, 346.33)">H</text><text class="cls-3" transform="translate(83.21 325.5) rotate(-108.3)">O</text><text class="cls-3" transform="matrix(-0.19, -0.98, 0.98, -0.19, 75.55, 301.99)">O</text><text class="cls-3" transform="translate(71.11 277.64) rotate(-93.39)">D</text><text class="cls-3" transform="translate(70.11 254.41) rotate(-88.27)"> </text><text class="cls-3" transform="translate(70.15 244.29) rotate(-82.88)">O</text><text class="cls-3" transform="translate(73.47 219.74) rotate(-75.99)">F</text><text class="cls-3" transform="translate(78.59 200.39) rotate(-71.31)"> </text><text class="cls-3" transform="translate(81.62 190.76) rotate(-66.13)">C</text><text class="cls-3" transform="translate(91.08 169.67) rotate(-58.99)">H</text><text class="cls-3" transform="matrix(0.62, -0.79, 0.79, 0.62, 103.07, 149.91)">R</text><text class="cls-3" transform="matrix(0.68, -0.73, 0.73, 0.68, 117.7, 131.83)">I</text><text class="cls-3" transform="matrix(0.74, -0.67, 0.67, 0.74, 124.53, 124.3)">S</text><text class="cls-3" transform="matrix(0.81, -0.58, 0.58, 0.81, 140.63, 110.01)">T</text><text class="cls-3" transform="matrix(0.86, -0.51, 0.51, 0.86, 157.04, 98.63)">I</text><text class="cls-3" transform="translate(165.62 93.25) rotate(-25.7)">A</text><text class="cls-3" transform="matrix(0.95, -0.32, 0.32, 0.95, 186.51, 83.32)">N</text><text class="cls-3" transform="translate(208.68 76.27) rotate(-13.45)"> </text><text class="cls-3" transform="translate(218.45 73.72) rotate(-8.35)">B</text><text class="cls-3" transform="translate(241.35 70.47) rotate(-1.26)">U</text><text class="cls-3" transform="translate(264.48 70.11) rotate(5.59)">S</text><text class="cls-3" transform="translate(285.97 72.54) rotate(10.49)">I</text><text class="cls-3" transform="translate(295.98 74.18) rotate(15.67)">N</text><text class="cls-3" transform="translate(318.2 80.57) rotate(22.59)">E</text><text class="cls-3" transform="matrix(0.87, 0.49, -0.49, 0.87, 338.01, 88.92)">S</text><text class="cls-3" transform="matrix(0.81, 0.59, -0.59, 0.81, 356.74, 99.53)">S</text><text class="cls-3" transform="translate(374.18 112.06) rotate(43.1)">M</text><text class="cls-3" transform="translate(393.26 130.28) rotate(50.49)">E</text><text class="cls-3" transform="translate(406.89 146.89) rotate(57.41)">N</text><text class="cls-3" transform="matrix(0.46, 0.89, -0.89, 0.46, 419.08, 166.67)"> </text><text class="cls-3" transform="translate(423.46 174.59) rotate(67.4)">A</text><text class="cls-3" transform="matrix(0.27, 0.96, -0.96, 0.27, 432.25, 195.99)">N</text><text class="cls-3" transform="translate(438.32 218.28) rotate(81.59)">D</text><text class="cls-3" transform="translate(441.35 241.35) rotate(86.71)"> </text><text class="cls-3" transform="translate(442.09 251.45) rotate(91.58)">P</text><text class="cls-3" transform="translate(441.45 272.95) rotate(98.45)">R</text><text class="cls-3" transform="translate(438 295.77) rotate(105.85)">O</text><text class="cls-3" transform="translate(430.99 319.55) rotate(112.77)">F</text><text class="cls-3" transform="translate(423.25 337.85) rotate(119.18)">E</text><text class="cls-3" transform="matrix(-0.58, 0.81, -0.81, -0.58, 412.66, 356.59)">S</text><text class="cls-3" transform="matrix(-0.67, 0.74, -0.74, -0.67, 400, 374)">S</text><text class="cls-3" transform="translate(385.2 389.79) rotate(137.19)">I</text><text class="cls-3" transform="matrix(-0.79, 0.61, -0.61, -0.79, 377.98, 396.83)">O</text><text class="cls-3" transform="matrix(-0.87, 0.5, -0.5, -0.87, 358.23, 411.72)">N</text><text class="cls-3" transform="matrix(-0.92, 0.39, -0.39, -0.92, 338.15, 423.17)">A</text><text class="cls-3" transform="translate(316.75 431.97) rotate(163.79)">L</text><text class="cls-3" transform="translate(297.62 437.47) rotate(170.14)">S</text></g><g id="inner_component_cutouts" data-name="inner component cutouts"><path class="cls-1" d="M332.7,164.58a33.08,33.08,0,0,1,0,46.34h77.43a159.88,159.88,0,0,0-22.19-46.34Z"/><path class="cls-1" d="M169.58,187.5a33.07,33.07,0,0,1,9.47-23.17H124.23a160.26,160.26,0,0,0-22.29,46.34h77.11A33.07,33.07,0,0,1,169.58,187.5Z"/><polygon class="cls-4" points="219.75 218.08 177.88 218.08 152.38 262.58 194.25 262.58 219.75 218.08"/><polygon class="cls-4" points="219.75 307.08 177.88 307.08 152.38 262.58 194.25 262.58 219.75 307.08"/><polygon class="cls-4" points="291.29 218.08 333.17 218.08 358.67 262.58 316.79 262.58 291.29 218.08"/><polygon class="cls-4" points="291.29 307.08 333.17 307.08 358.67 262.58 316.79 262.58 291.29 307.08"/></g></svg>